<?xml version="1.0" encoding="UTF-8" standalone="no"?>
<!DOCTYPE svg PUBLIC "-//W3C//DTD SVG 1.1//EN"
 "http://www.w3.org/Graphics/SVG/1.1/DTD/svg11.dtd">
<!-- Generated by graphviz version 2.36.0 (20140111.2315)
 -->
<!-- Title: G Pages: 1 -->
<svg width="444pt" height="338pt"
 viewBox="0.00 0.00 444.00 338.00" xmlns="http://www.w3.org/2000/svg" xmlns:xlink="http://www.w3.org/1999/xlink">
<g id="graph0" class="graph" transform="scale(1 1) rotate(0) translate(4 334)">
<title>G</title>
<polygon fill="white" stroke="none" points="-4,4 -4,-334 440,-334 440,4 -4,4"/>
<g id="clust1" class="cluster"><title>cluster_Global</title>
<path fill="none" stroke="gray" d="M85,-44C85,-44 416,-44 416,-44 422,-44 428,-50 428,-56 428,-56 428,-310 428,-310 428,-316 422,-322 416,-322 416,-322 85,-322 85,-322 79,-322 73,-316 73,-310 73,-310 73,-56 73,-56 73,-50 79,-44 85,-44"/>
<text text-anchor="middle" x="250.5" y="-309.2" font-family="Times,serif" font-size="11.00" fill="gray">Global</text>
</g>
<g id="clust2" class="cluster"><title>cluster_\KentBeckTDD</title>
<path fill="none" stroke="gray" d="M93,-52C93,-52 408,-52 408,-52 414,-52 420,-58 420,-64 420,-64 420,-282 420,-282 420,-288 414,-294 408,-294 408,-294 93,-294 93,-294 87,-294 81,-288 81,-282 81,-282 81,-64 81,-64 81,-58 87,-52 93,-52"/>
<text text-anchor="middle" x="250.5" y="-281.2" font-family="Times,serif" font-size="11.00" fill="gray">KentBeckTDD</text>
</g>
<g id="clust3" class="cluster"><title>cluster_\KentBeckTDD\Currency</title>
<path fill="none" stroke="gray" d="M101,-140C101,-140 386,-140 386,-140 392,-140 398,-146 398,-152 398,-152 398,-254 398,-254 398,-260 392,-266 386,-266 386,-266 101,-266 101,-266 95,-266 89,-260 89,-254 89,-254 89,-152 89,-152 89,-146 95,-140 101,-140"/>
<text text-anchor="middle" x="243.5" y="-253.2" font-family="Times,serif" font-size="11.00" fill="gray">Currency</text>
</g>
<g id="clust4" class="cluster"><title>cluster_\KentBeckTDD\Test</title>
<path fill="none" stroke="gray" d="M324,-60C324,-60 400,-60 400,-60 406,-60 412,-66 412,-72 412,-72 412,-120 412,-120 412,-126 406,-132 400,-132 400,-132 324,-132 324,-132 318,-132 312,-126 312,-120 312,-120 312,-72 312,-72 312,-66 318,-60 324,-60"/>
<text text-anchor="middle" x="362" y="-119.2" font-family="Times,serif" font-size="11.00" fill="gray">Test</text>
</g>
<!-- \\KentBeckTDD\\Currency\\Dollar -->
<g id="node1" class="node"><title>\\KentBeckTDD\\Currency\\Dollar</title>
<polygon fill="none" stroke="black" points="390,-238 334,-238 334,-202 390,-202 390,-238"/>
<text text-anchor="middle" x="362" y="-217.2" font-family="Courier,monospace" font-size="11.00">Dollar</text>
</g>
<!-- \\KentBeckTDD\\Currency\\Money -->
<g id="node2" class="node"><title>\\KentBeckTDD\\Currency\\Money</title>
<polygon fill="none" stroke="black" points="151,-211 97,-211 97,-175 151,-175 151,-211"/>
<text text-anchor="middle" x="124" y="-190.2" font-family="Courier,monospace" font-size="11.00">Money</text>
</g>
<!-- \\KentBeckTDD\\Currency\\Dollar&#45;&gt;\\KentBeckTDD\\Currency\\Money -->
<g id="edge1" class="edge"><title>\\KentBeckTDD\\Currency\\Dollar&#45;&gt;\\KentBeckTDD\\Currency\\Money</title>
<path fill="none" stroke="black" d="M333.928,-216.903C291.38,-212.035 208.812,-202.589 161.206,-197.142"/>
<polygon fill="none" stroke="black" points="161.37,-193.638 151.037,-195.979 160.575,-200.593 161.37,-193.638"/>
</g>
<!-- \\KentBeckTDD\\Currency\\Peso -->
<g id="node3" class="node"><title>\\KentBeckTDD\\Currency\\Peso</title>
<polygon fill="none" stroke="black" points="389,-184 335,-184 335,-148 389,-148 389,-184"/>
<text text-anchor="middle" x="362" y="-163.2" font-family="Courier,monospace" font-size="11.00">Peso</text>
</g>
<!-- \\KentBeckTDD\\Currency\\Peso&#45;&gt;\\KentBeckTDD\\Currency\\Money -->
<g id="edge2" class="edge"><title>\\KentBeckTDD\\Currency\\Peso&#45;&gt;\\KentBeckTDD\\Currency\\Money</title>
<path fill="none" stroke="black" d="M334.842,-168.993C292.579,-173.828 209.181,-183.369 161.228,-188.855"/>
<polygon fill="none" stroke="black" points="160.812,-185.38 151.275,-189.994 161.608,-192.335 160.812,-185.38"/>
</g>
<!-- \\KentBeckTDD\\Test\\DollarTest -->
<g id="node4" class="node"><title>\\KentBeckTDD\\Test\\DollarTest</title>
<polygon fill="none" stroke="black" points="403.5,-104 320.5,-104 320.5,-68 403.5,-68 403.5,-104"/>
<text text-anchor="middle" x="362" y="-83.2" font-family="Courier,monospace" font-size="11.00">DollarTest</text>
</g>
<!-- \\PHPUnit\\Framework\\TestCase -->
<g id="node5" class="node"><title>\\PHPUnit\\Framework\\TestCase</title>
<ellipse fill="none" stroke="black" cx="124" cy="-18" rx="124.278" ry="18"/>
<text text-anchor="middle" x="124" y="-14.3" font-family="Times,serif" font-size="14.00" fill="gray">\PHPUnit\FrameworkTestCase</text>
</g>
<!-- \\KentBeckTDD\\Test\\DollarTest&#45;&gt;\\PHPUnit\\Framework\\TestCase -->
<g id="edge3" class="edge"><title>\\KentBeckTDD\\Test\\DollarTest&#45;&gt;\\PHPUnit\\Framework\\TestCase</title>
<path fill="none" stroke="black" d="M320.43,-74.3104C284.804,-64.0452 232.318,-48.9222 190.708,-36.9327"/>
<polygon fill="none" stroke="black" points="191.502,-33.5193 180.924,-34.1137 189.564,-40.2457 191.502,-33.5193"/>
</g>
</g>
</svg>
